<svg width="3247" height="1163" viewBox="0 0 3247 1163" fill="none"
	xmlns="http://www.w3.org/2000/svg">
	<rect width="3246.04" height="1163" rx="51" fill="#0FBD8C" />
	<path
		d="M2881.43 205.931C2793.94 205.931 2722.86 276.947 2722.86 364.733C2722.86 452.519 2793.94 523.534 2881.43 523.534C3033.15 523.534 3156 646.619 3156 798.267C3156 949.916 3033.15 1073 2881.43 1073H2664.86C2632.83 1073 2606.86 1047.05 2606.86 1015.03C2606.86 983.021 2632.83 957.069 2664.86 957.069H2881.43C2968.92 957.069 3040 886.053 3040 798.267C3040 710.481 2968.92 639.466 2881.43 639.466C2729.71 639.466 2606.86 516.381 2606.86 364.733C2606.86 213.084 2729.71 90 2881.43 90H3098C3130.03 90 3156 115.952 3156 147.966C3156 179.979 3130.03 205.931 3098 205.931H2881.43Z"
		fill="url(#paint0_linear_1_137)" />
	<path
		d="M2403.88 930.82C2494.97 839.784 2546.15 716.312 2546.15 587.568V161.601C2546.15 123.397 2515.16 92.4272 2476.93 92.4272C2438.71 92.4272 2407.72 123.397 2407.72 161.601L2407.72 587.568C2407.72 679.37 2370.28 767.412 2305.33 832.326C2256.94 880.685 2195.71 913.258 2129.65 926.726C2091.94 934.414 2060.43 964.89 2060.43 1003.35C2060.43 1041.82 2091.79 1073.51 2129.88 1068.01C2233.02 1053.12 2329.33 1005.34 2403.88 930.82Z"
		fill="url(#paint1_linear_1_137)" />
	<path
		d="M1926.86 927.37C1886.62 927.37 1854 959.971 1854 1000.19C1854 1040.4 1886.62 1073 1926.86 1073C1967.1 1073 1999.72 1040.4 1999.72 1000.19C1999.72 959.971 1967.1 927.37 1926.86 927.37Z"
		fill="url(#paint2_linear_1_137)" />
	<path
		d="M167.163 1052.11C167.321 1052.58 167.242 1053.05 166.926 1053.53C166.663 1053.95 166.268 1054.16 165.741 1054.16H163.055C162.37 1054.16 161.896 1053.84 161.633 1053.21L156.735 1040.73H132.324C129.849 1047 128.216 1051.16 127.426 1053.21C127.163 1053.84 126.689 1054.16 126.004 1054.16H123.318C122.791 1054.16 122.37 1053.95 122.054 1053.53C121.791 1053.05 121.738 1052.58 121.896 1052.11C125.688 1042.52 132.113 1026.3 141.172 1003.44C141.435 1002.81 141.909 1002.49 142.594 1002.49H146.465C147.15 1002.49 147.624 1002.81 147.887 1003.44C152.206 1014.34 158.631 1030.57 167.163 1052.11ZM134.536 1035.2H154.523L144.569 1009.92L134.536 1035.2ZM229.932 1043.57C230.3 1043.73 230.564 1044.02 230.722 1044.44C230.88 1044.81 230.88 1045.18 230.722 1045.55C229.247 1048.55 227.246 1050.84 224.718 1052.42C221.874 1054.16 218.134 1055.03 213.5 1055.03C207.97 1055.03 203.44 1053.63 199.912 1050.84C194.487 1046.58 191.775 1039.07 191.775 1028.33C191.775 1017.58 194.487 1010.05 199.912 1005.73C203.44 1002.99 207.97 1001.63 213.5 1001.63C218.082 1001.63 221.821 1002.49 224.718 1004.23C227.246 1005.76 229.247 1008.02 230.722 1011.03C230.88 1011.45 230.88 1011.87 230.722 1012.29C230.564 1012.66 230.3 1012.92 229.932 1013.08C228.931 1013.5 228.141 1013.82 227.562 1014.03C226.719 1014.34 226.087 1014.11 225.666 1013.32C224.56 1011.16 223.032 1009.58 221.084 1008.58C219.188 1007.58 216.66 1007.08 213.5 1007.08C209.234 1007.08 205.837 1008.08 203.309 1010.08C202.255 1010.92 201.334 1011.97 200.544 1013.24C199.754 1014.5 199.148 1015.74 198.727 1016.95C198.305 1018.11 197.989 1019.45 197.779 1020.98C197.568 1022.51 197.436 1023.8 197.384 1024.85C197.331 1025.85 197.305 1027.01 197.305 1028.33C197.305 1029.38 197.305 1030.35 197.305 1031.25C197.357 1032.09 197.436 1033.15 197.542 1034.41C197.7 1035.62 197.91 1036.75 198.174 1037.81C198.437 1038.81 198.779 1039.86 199.201 1040.97C199.622 1042.07 200.175 1043.1 200.86 1044.05C201.597 1045 202.413 1045.84 203.309 1046.58C205.837 1048.52 209.234 1049.5 213.5 1049.5C216.66 1049.5 219.188 1049.03 221.084 1048.08C223.032 1047.08 224.56 1045.5 225.666 1043.34C226.087 1042.49 226.719 1042.26 227.562 1042.63C228.615 1043.05 229.405 1043.36 229.932 1043.57ZM243.586 1001.15C244.008 1001.15 244.35 1001.31 244.613 1001.63C244.929 1001.89 245.087 1002.23 245.087 1002.65V1052.66C245.087 1053.08 244.929 1053.45 244.613 1053.77C244.297 1054.03 243.955 1054.16 243.586 1054.16H241.058C240.637 1054.16 240.268 1054.03 239.952 1053.77C239.689 1053.45 239.557 1053.08 239.557 1052.66V1002.65C239.557 1002.23 239.689 1001.89 239.952 1001.63C240.268 1001.31 240.637 1001.15 241.058 1001.15H243.586ZM285.923 1034.57C285.923 1034.83 285.897 1035.15 285.844 1035.52C285.897 1035.88 285.923 1036.2 285.923 1036.46C285.923 1039.89 285.555 1042.84 284.817 1045.31C284.08 1047.79 282.895 1049.79 281.262 1051.32C278.734 1053.69 275.179 1054.92 270.597 1055.03H270.439C265.857 1054.92 262.329 1053.69 259.853 1051.32C256.746 1048.42 255.192 1043.47 255.192 1036.46C255.192 1036.2 255.192 1035.88 255.192 1035.52C255.192 1035.15 255.192 1034.83 255.192 1034.57C255.192 1027.56 256.746 1022.61 259.853 1019.72C262.329 1017.35 265.857 1016.11 270.439 1016H270.597C275.179 1016.11 278.734 1017.35 281.262 1019.72C284.37 1022.61 285.923 1027.56 285.923 1034.57ZM280.393 1036.46C280.393 1036.15 280.393 1035.86 280.393 1035.6V1035.44C280.393 1035.07 280.393 1034.78 280.393 1034.57C280.393 1031.88 280.183 1029.67 279.761 1027.93C279.393 1026.19 278.629 1024.77 277.47 1023.67C275.996 1022.3 273.678 1021.56 270.518 1021.45C267.358 1021.56 265.041 1022.3 263.566 1023.67C262.46 1024.77 261.697 1026.19 261.275 1027.93C260.907 1029.67 260.722 1031.88 260.722 1034.57C260.722 1034.83 260.722 1035.12 260.722 1035.44V1035.6C260.722 1035.91 260.722 1036.2 260.722 1036.46C260.722 1039.15 260.907 1041.36 261.275 1043.1C261.697 1044.84 262.46 1046.26 263.566 1047.37C265.041 1048.74 267.358 1049.45 270.518 1049.5C273.678 1049.45 275.996 1048.74 277.47 1047.37C278.629 1046.26 279.393 1044.84 279.761 1043.1C280.183 1041.36 280.393 1039.15 280.393 1036.46ZM323.206 1016.87C323.627 1016.87 323.97 1017.03 324.233 1017.35C324.549 1017.61 324.707 1017.95 324.707 1018.37V1052.66C324.707 1053.08 324.549 1053.45 324.233 1053.77C323.97 1054.03 323.627 1054.16 323.206 1054.16H320.678C320.257 1054.16 319.888 1054.03 319.572 1053.77C319.309 1053.45 319.177 1053.08 319.177 1052.66V1047.92C319.072 1048.02 318.94 1048.24 318.782 1048.55C315.464 1052.98 311.461 1055.13 306.774 1055.03C303.14 1054.92 300.349 1053.24 298.4 1049.97C296.451 1046.66 295.477 1042.15 295.477 1036.46V1018.37C295.477 1017.95 295.609 1017.61 295.872 1017.35C296.188 1017.03 296.557 1016.87 296.978 1016.87H299.506C299.875 1016.87 300.217 1017.03 300.533 1017.35C300.849 1017.61 301.007 1017.95 301.007 1018.37V1036.46C301.007 1038.2 301.007 1039.52 301.007 1040.41C301.06 1041.26 301.191 1042.26 301.402 1043.42C301.665 1044.52 302.034 1045.47 302.508 1046.26C303.825 1048.37 305.615 1049.45 307.88 1049.5C309.671 1049.55 311.382 1049.16 313.015 1048.31C314.7 1047.47 315.964 1046.44 316.807 1045.23C317.808 1043.92 318.598 1042.47 319.177 1040.89V1018.37C319.177 1017.95 319.309 1017.61 319.572 1017.35C319.888 1017.03 320.257 1016.87 320.678 1016.87H323.206ZM365.934 1001.15C366.355 1001.15 366.697 1001.31 366.961 1001.63C367.277 1001.89 367.435 1002.23 367.435 1002.65V1052.66C367.435 1053.08 367.277 1053.45 366.961 1053.77C366.697 1054.03 366.355 1054.16 365.934 1054.16H363.406C362.984 1054.16 362.616 1054.03 362.3 1053.77C362.036 1053.45 361.905 1053.08 361.905 1052.66V1048.31C358.113 1052.79 353.188 1055.03 347.132 1055.03C343.34 1055.03 340.338 1053.26 338.126 1049.74C335.914 1046.15 334.808 1041.1 334.808 1034.57C334.808 1028.83 335.835 1024.32 337.889 1021.06C339.995 1017.79 343.076 1016.11 347.132 1016C353.188 1015.85 358.113 1018.37 361.905 1023.59V1002.65C361.905 1002.23 362.036 1001.89 362.3 1001.63C362.616 1001.31 362.984 1001.15 363.406 1001.15H365.934ZM361.905 1042.31V1030.22C361.694 1029.59 361.273 1028.85 360.641 1028.01C360.061 1027.17 359.219 1026.22 358.113 1025.17C357.059 1024.11 355.69 1023.24 354.005 1022.56C352.372 1021.82 350.608 1021.48 348.712 1021.53C345.973 1021.59 343.893 1022.8 342.471 1025.17C341.049 1027.48 340.338 1030.62 340.338 1034.57C340.338 1037.62 340.654 1040.28 341.286 1042.55C341.97 1044.81 342.945 1046.55 344.209 1047.76C345.473 1048.92 346.947 1049.5 348.633 1049.5C350.476 1049.5 352.214 1049.21 353.847 1048.63C355.532 1048.05 356.901 1047.34 357.955 1046.5C359.061 1045.65 359.93 1044.89 360.562 1044.21C361.194 1043.47 361.641 1042.84 361.905 1042.31ZM382.762 1001.15C383.183 1001.15 383.526 1001.31 383.789 1001.63C384.105 1001.89 384.263 1002.23 384.263 1002.65V1052.66C384.263 1053.08 384.105 1053.45 383.789 1053.77C383.473 1054.03 383.131 1054.16 382.762 1054.16H380.234C379.813 1054.16 379.444 1054.03 379.128 1053.77C378.865 1053.45 378.733 1053.08 378.733 1052.66V1002.65C378.733 1002.23 378.865 1001.89 379.128 1001.63C379.444 1001.31 379.813 1001.15 380.234 1001.15H382.762ZM399.503 1016.79C399.872 1016.79 400.214 1016.95 400.53 1017.27C400.846 1017.53 401.004 1017.87 401.004 1018.29V1052.58C401.004 1053 400.846 1053.37 400.53 1053.69C400.214 1053.95 399.872 1054.08 399.503 1054.08H396.975C396.554 1054.08 396.185 1053.95 395.869 1053.69C395.606 1053.37 395.474 1053 395.474 1052.58V1018.29C395.474 1017.87 395.606 1017.53 395.869 1017.27C396.185 1016.95 396.554 1016.79 396.975 1016.79H399.503ZM399.503 1002.81C399.872 1002.81 400.214 1002.97 400.53 1003.28C400.846 1003.55 401.004 1003.89 401.004 1004.31V1008.34C401.004 1008.71 400.846 1009.05 400.53 1009.37C400.214 1009.63 399.872 1009.76 399.503 1009.76H396.975C396.554 1009.76 396.185 1009.63 395.869 1009.37C395.606 1009.05 395.474 1008.71 395.474 1008.34V1004.31C395.474 1003.89 395.606 1003.55 395.869 1003.28C396.185 1002.97 396.554 1002.81 396.975 1002.81H399.503ZM430.148 1016C433.782 1016.11 436.574 1017.79 438.522 1021.06C440.471 1024.32 441.445 1028.83 441.445 1034.57V1052.66C441.445 1053.08 441.287 1053.45 440.971 1053.77C440.708 1054.03 440.366 1054.16 439.944 1054.16H437.416C436.995 1054.16 436.626 1054.03 436.31 1053.77C436.047 1053.45 435.915 1053.08 435.915 1052.66V1034.57C435.915 1033.25 435.915 1032.28 435.915 1031.65C435.915 1030.96 435.863 1030.14 435.757 1029.2C435.652 1028.2 435.494 1027.35 435.283 1026.67C435.073 1025.98 434.783 1025.35 434.414 1024.77C433.098 1022.67 431.307 1021.59 429.042 1021.53C427.831 1021.48 426.62 1021.66 425.408 1022.09C424.197 1022.51 423.144 1023.03 422.248 1023.67C421.353 1024.3 420.616 1025.01 420.036 1025.8C419.088 1027.12 418.325 1028.56 417.745 1030.14V1052.66C417.745 1053.08 417.587 1053.45 417.271 1053.77C416.955 1054.03 416.613 1054.16 416.244 1054.16H413.716C413.295 1054.16 412.926 1054.03 412.61 1053.77C412.347 1053.45 412.215 1053.08 412.215 1052.66V1018.37C412.215 1017.95 412.347 1017.61 412.61 1017.35C412.926 1017.03 413.295 1016.87 413.716 1016.87H416.244C416.666 1016.87 417.008 1017.03 417.271 1017.35C417.587 1017.61 417.745 1017.95 417.745 1018.37V1023.11C417.798 1022.96 417.93 1022.74 418.14 1022.48C421.458 1018.06 425.461 1015.9 430.148 1016ZM481.173 1051.87C481.489 1052.34 481.489 1052.84 481.173 1053.37C480.91 1053.9 480.489 1054.16 479.909 1054.16H476.907C476.381 1054.16 475.959 1053.92 475.643 1053.45L462.371 1033.15L457.631 1037.81V1052.66C457.631 1053.08 457.473 1053.45 457.157 1053.77C456.841 1054.03 456.499 1054.16 456.13 1054.16H453.602C453.181 1054.16 452.812 1054.03 452.496 1053.77C452.233 1053.45 452.101 1053.08 452.101 1052.66V1002.65C452.101 1002.23 452.233 1001.89 452.496 1001.63C452.812 1001.31 453.181 1001.15 453.602 1001.15H456.13C456.552 1001.15 456.894 1001.31 457.157 1001.63C457.473 1001.89 457.631 1002.23 457.631 1002.65V1030.14C464.794 1023.09 469.165 1018.79 470.745 1017.27C471.009 1017 471.351 1016.87 471.772 1016.87H475.327C476.012 1016.87 476.486 1017.19 476.749 1017.82C477.013 1018.45 476.907 1019.01 476.433 1019.48L466.321 1029.28C473.537 1040.18 478.487 1047.71 481.173 1051.87ZM535.225 1049.34C535.488 1049.71 535.593 1050.1 535.541 1050.53C535.541 1050.95 535.356 1051.29 534.988 1051.55C531.828 1053.87 528.325 1055.03 524.481 1055.03C518.845 1055.03 514.527 1053.74 511.525 1051.16C507.891 1048.05 506.074 1042.84 506.074 1035.52V1035.36C506.074 1028.14 507.891 1022.98 511.525 1019.87C514.527 1017.29 518.845 1016 524.481 1016C528.325 1016 531.828 1017.16 534.988 1019.48C535.304 1019.74 535.488 1020.08 535.541 1020.51C535.593 1020.93 535.488 1021.3 535.225 1021.61C534.909 1021.98 534.356 1022.64 533.566 1023.59C532.934 1024.27 532.249 1024.32 531.512 1023.75C529.405 1022.27 527.061 1021.53 524.481 1021.53C520.215 1021.53 517.081 1022.38 515.08 1024.06C513.71 1025.22 512.789 1026.75 512.315 1028.64C511.841 1030.54 511.604 1032.83 511.604 1035.52V1035.75C511.604 1038.39 511.841 1040.62 512.315 1042.47C512.789 1044.31 513.71 1045.81 515.08 1046.97C517.081 1048.66 520.215 1049.5 524.481 1049.5C527.061 1049.5 529.405 1048.76 531.512 1047.29C532.249 1046.71 532.907 1046.76 533.487 1047.45C533.908 1047.92 534.487 1048.55 535.225 1049.34ZM548.323 1001.15C548.744 1001.15 549.086 1001.31 549.35 1001.63C549.666 1001.89 549.824 1002.23 549.824 1002.65V1052.66C549.824 1053.08 549.666 1053.45 549.35 1053.77C549.034 1054.03 548.691 1054.16 548.323 1054.16H545.795C545.373 1054.16 545.005 1054.03 544.689 1053.77C544.425 1053.45 544.294 1053.08 544.294 1052.66V1002.65C544.294 1002.23 544.425 1001.89 544.689 1001.63C545.005 1001.31 545.373 1001.15 545.795 1001.15H548.323ZM565.064 1016.79C565.432 1016.79 565.775 1016.95 566.091 1017.27C566.407 1017.53 566.565 1017.87 566.565 1018.29V1052.58C566.565 1053 566.407 1053.37 566.091 1053.69C565.775 1053.95 565.432 1054.08 565.064 1054.08H562.536C562.114 1054.08 561.746 1053.95 561.43 1053.69C561.166 1053.37 561.035 1053 561.035 1052.58V1018.29C561.035 1017.87 561.166 1017.53 561.43 1017.27C561.746 1016.95 562.114 1016.79 562.536 1016.79H565.064ZM565.064 1002.81C565.432 1002.81 565.775 1002.97 566.091 1003.28C566.407 1003.55 566.565 1003.89 566.565 1004.31V1008.34C566.565 1008.71 566.407 1009.05 566.091 1009.37C565.775 1009.63 565.432 1009.76 565.064 1009.76H562.536C562.114 1009.76 561.746 1009.63 561.43 1009.37C561.166 1009.05 561.035 1008.71 561.035 1008.34V1004.31C561.035 1003.89 561.166 1003.55 561.43 1003.28C561.746 1002.97 562.114 1002.81 562.536 1002.81H565.064ZM607.48 1033.7H607.559V1036.78C607.559 1037.2 607.401 1037.57 607.085 1037.89C606.769 1038.15 606.427 1038.28 606.058 1038.28H582.042C582.305 1042.34 583.438 1045.23 585.439 1046.97C587.44 1048.66 590.574 1049.5 594.84 1049.5C597.368 1049.5 599.712 1048.76 601.871 1047.29C602.608 1046.71 603.267 1046.76 603.846 1047.45C604.162 1047.76 604.741 1048.39 605.584 1049.34C605.847 1049.66 605.953 1050.05 605.9 1050.53C605.9 1050.95 605.716 1051.29 605.347 1051.55C602.187 1053.87 598.685 1055.03 594.84 1055.03C589.205 1055.03 584.886 1053.74 581.884 1051.16C578.25 1048.05 576.433 1042.84 576.433 1035.52V1035.44C576.433 1028.27 577.908 1023.17 580.857 1020.11C583.438 1017.37 587.124 1016 591.917 1016C596.762 1016 600.502 1017.37 603.135 1020.11C605.821 1022.9 607.269 1027.43 607.48 1033.7ZM581.963 1033.7H602.029C601.871 1029.01 600.897 1025.75 599.106 1023.9C597.631 1022.27 595.261 1021.45 591.996 1021.45C588.731 1021.45 586.334 1022.27 584.807 1023.9C583.016 1025.75 582.068 1029.01 581.963 1033.7ZM635.518 1016C639.152 1016.11 641.943 1017.79 643.892 1021.06C645.84 1024.32 646.815 1028.83 646.815 1034.57V1052.66C646.815 1053.08 646.657 1053.45 646.341 1053.77C646.077 1054.03 645.735 1054.16 645.314 1054.16H642.786C642.364 1054.16 641.996 1054.03 641.68 1053.77C641.416 1053.45 641.285 1053.08 641.285 1052.66V1034.57C641.285 1033.25 641.285 1032.28 641.285 1031.65C641.285 1030.96 641.232 1030.14 641.127 1029.2C641.021 1028.2 640.863 1027.35 640.653 1026.67C640.442 1025.98 640.152 1025.35 639.784 1024.77C638.467 1022.67 636.676 1021.59 634.412 1021.53C633.2 1021.48 631.989 1021.66 630.778 1022.09C629.566 1022.51 628.513 1023.03 627.618 1023.67C626.722 1024.3 625.985 1025.01 625.406 1025.8C624.458 1027.12 623.694 1028.56 623.115 1030.14V1052.66C623.115 1053.08 622.957 1053.45 622.641 1053.77C622.325 1054.03 621.982 1054.16 621.614 1054.16H619.086C618.664 1054.16 618.296 1054.03 617.98 1053.77C617.716 1053.45 617.585 1053.08 617.585 1052.66V1018.37C617.585 1017.95 617.716 1017.61 617.98 1017.35C618.296 1017.03 618.664 1016.87 619.086 1016.87H621.614C622.035 1016.87 622.377 1017.03 622.641 1017.35C622.957 1017.61 623.115 1017.95 623.115 1018.37V1023.11C623.167 1022.96 623.299 1022.74 623.51 1022.48C626.828 1018.06 630.83 1015.9 635.518 1016ZM675.1 1051.4C675.258 1051.82 675.258 1052.24 675.1 1052.66C674.942 1053.03 674.653 1053.29 674.231 1053.45C671.282 1054.66 668.938 1055.19 667.2 1055.03C664.514 1054.77 662.408 1053.82 660.88 1052.19C659.406 1050.55 658.668 1048.5 658.668 1046.02V1021.77H655.745C655.324 1021.77 654.955 1021.64 654.639 1021.38C654.376 1021.06 654.244 1020.69 654.244 1020.27V1017.82C654.244 1017.4 654.376 1017.06 654.639 1016.79C654.955 1016.48 655.324 1016.32 655.745 1016.32H658.668V1006.6C658.668 1006.18 658.8 1005.84 659.063 1005.58C659.379 1005.26 659.748 1005.1 660.169 1005.1H662.618C663.04 1005.1 663.382 1005.26 663.645 1005.58C663.961 1005.84 664.119 1006.18 664.119 1006.6V1016.32H673.046C673.468 1016.32 673.81 1016.48 674.073 1016.79C674.389 1017.06 674.547 1017.4 674.547 1017.82V1020.27C674.547 1020.69 674.389 1021.06 674.073 1021.38C673.81 1021.64 673.468 1021.77 673.046 1021.77H664.119V1046.02C664.119 1047.08 664.383 1047.87 664.909 1048.39C665.489 1049.03 666.41 1049.39 667.674 1049.5C668.622 1049.6 670.097 1049.24 672.098 1048.39C672.467 1048.24 672.836 1048.24 673.204 1048.39C673.573 1048.5 673.836 1048.74 673.994 1049.1C674.31 1049.74 674.679 1050.5 675.1 1051.4ZM750.888 1016.87C751.362 1016.87 751.757 1017.08 752.073 1017.5C752.389 1017.93 752.468 1018.37 752.31 1018.85C749.887 1026.06 746.042 1037.49 740.776 1053.13C740.565 1053.82 740.091 1054.16 739.354 1054.16H735.72C735.035 1054.16 734.561 1053.82 734.298 1053.13L725.529 1026.91L716.76 1053.13C716.549 1053.82 716.075 1054.16 715.338 1054.16H711.704C711.019 1054.16 710.545 1053.82 710.282 1053.13C709.702 1051.29 707.806 1045.6 704.594 1036.07C701.381 1026.54 699.459 1020.8 698.827 1018.85C698.669 1018.37 698.721 1017.93 698.985 1017.5C699.301 1017.08 699.722 1016.87 700.249 1016.87H702.856C703.593 1016.87 704.067 1017.21 704.278 1017.9L713.521 1045.47C718.577 1030.46 721.658 1021.27 722.764 1017.9C722.974 1017.21 723.448 1016.87 724.186 1016.87H726.872C727.609 1016.87 728.109 1017.21 728.373 1017.9L737.537 1045.47C742.593 1030.46 745.674 1021.27 746.78 1017.9C747.043 1017.21 747.517 1016.87 748.202 1016.87H750.888ZM779.344 1016.08C779.713 1016.13 780.029 1016.29 780.292 1016.56C780.556 1016.82 780.687 1017.16 780.687 1017.58V1020.27C780.687 1020.8 780.477 1021.22 780.055 1021.53C779.687 1021.8 779.265 1021.88 778.791 1021.77C778.317 1021.61 777.817 1021.53 777.29 1021.53C775.605 1021.48 773.946 1022.06 772.313 1023.27C770.733 1024.48 769.39 1025.83 768.284 1027.3C767.284 1028.62 766.52 1030.07 765.993 1031.65V1052.66C765.993 1053.08 765.835 1053.45 765.519 1053.77C765.203 1054.03 764.861 1054.16 764.492 1054.16H761.964C761.543 1054.16 761.174 1054.03 760.858 1053.77C760.595 1053.45 760.463 1053.08 760.463 1052.66V1018.37C760.463 1017.95 760.595 1017.61 760.858 1017.35C761.174 1017.03 761.543 1016.87 761.964 1016.87H764.492C764.914 1016.87 765.256 1017.03 765.519 1017.35C765.835 1017.61 765.993 1017.95 765.993 1018.37V1023.11C766.151 1022.8 766.283 1022.59 766.388 1022.48C769.706 1018.06 773.709 1015.9 778.396 1016C778.765 1016 779.081 1016.03 779.344 1016.08ZM792.266 1016.79C792.635 1016.79 792.977 1016.95 793.293 1017.27C793.609 1017.53 793.767 1017.87 793.767 1018.29V1052.58C793.767 1053 793.609 1053.37 793.293 1053.69C792.977 1053.95 792.635 1054.08 792.266 1054.08H789.738C789.317 1054.08 788.948 1053.95 788.632 1053.69C788.369 1053.37 788.237 1053 788.237 1052.58V1018.29C788.237 1017.87 788.369 1017.53 788.632 1017.27C788.948 1016.95 789.317 1016.79 789.738 1016.79H792.266ZM792.266 1002.81C792.635 1002.81 792.977 1002.97 793.293 1003.28C793.609 1003.55 793.767 1003.89 793.767 1004.31V1008.34C793.767 1008.71 793.609 1009.05 793.293 1009.37C792.977 1009.63 792.635 1009.76 792.266 1009.76H789.738C789.317 1009.76 788.948 1009.63 788.632 1009.37C788.369 1009.05 788.237 1008.71 788.237 1008.34V1004.31C788.237 1003.89 788.369 1003.55 788.632 1003.28C788.948 1002.97 789.317 1002.81 789.738 1002.81H792.266ZM823.148 1051.4C823.306 1051.82 823.306 1052.24 823.148 1052.66C822.99 1053.03 822.7 1053.29 822.279 1053.45C819.33 1054.66 816.986 1055.19 815.248 1055.03C812.562 1054.77 810.455 1053.82 808.928 1052.19C807.453 1050.55 806.716 1048.5 806.716 1046.02V1021.77H803.793C803.372 1021.77 803.003 1021.64 802.687 1021.38C802.424 1021.06 802.292 1020.69 802.292 1020.27V1017.82C802.292 1017.4 802.424 1017.06 802.687 1016.79C803.003 1016.48 803.372 1016.32 803.793 1016.32H806.716V1006.6C806.716 1006.18 806.848 1005.84 807.111 1005.58C807.427 1005.26 807.796 1005.1 808.217 1005.1H810.666C811.087 1005.1 811.43 1005.26 811.693 1005.58C812.009 1005.84 812.167 1006.18 812.167 1006.6V1016.32H821.094C821.515 1016.32 821.858 1016.48 822.121 1016.79C822.437 1017.06 822.595 1017.4 822.595 1017.82V1020.27C822.595 1020.69 822.437 1021.06 822.121 1021.38C821.858 1021.64 821.515 1021.77 821.094 1021.77H812.167V1046.02C812.167 1047.08 812.43 1047.87 812.957 1048.39C813.536 1049.03 814.458 1049.39 815.722 1049.5C816.67 1049.6 818.145 1049.24 820.146 1048.39C820.515 1048.24 820.883 1048.24 821.252 1048.39C821.621 1048.5 821.884 1048.74 822.042 1049.1C822.358 1049.74 822.727 1050.5 823.148 1051.4ZM849.919 1051.4C850.077 1051.82 850.077 1052.24 849.919 1052.66C849.761 1053.03 849.471 1053.29 849.05 1053.45C846.1 1054.66 843.757 1055.19 842.019 1055.03C839.333 1054.77 837.226 1053.82 835.699 1052.19C834.224 1050.55 833.487 1048.5 833.487 1046.02V1021.77H830.564C830.142 1021.77 829.774 1021.64 829.458 1021.38C829.194 1021.06 829.063 1020.69 829.063 1020.27V1017.82C829.063 1017.4 829.194 1017.06 829.458 1016.79C829.774 1016.48 830.142 1016.32 830.564 1016.32H833.487V1006.6C833.487 1006.18 833.618 1005.84 833.882 1005.58C834.198 1005.26 834.566 1005.1 834.988 1005.1H837.437C837.858 1005.1 838.2 1005.26 838.464 1005.58C838.78 1005.84 838.938 1006.18 838.938 1006.6V1016.32H847.865C848.286 1016.32 848.628 1016.48 848.892 1016.79C849.208 1017.06 849.366 1017.4 849.366 1017.82V1020.27C849.366 1020.69 849.208 1021.06 848.892 1021.38C848.628 1021.64 848.286 1021.77 847.865 1021.77H838.938V1046.02C838.938 1047.08 839.201 1047.87 839.728 1048.39C840.307 1049.03 841.229 1049.39 842.493 1049.5C843.441 1049.6 844.915 1049.24 846.917 1048.39C847.285 1048.24 847.654 1048.24 848.023 1048.39C848.391 1048.5 848.655 1048.74 848.813 1049.1C849.129 1049.74 849.497 1050.5 849.919 1051.4ZM887.529 1033.7H887.608V1036.78C887.608 1037.2 887.45 1037.57 887.134 1037.89C886.818 1038.15 886.475 1038.28 886.107 1038.28H862.091C862.354 1042.34 863.486 1045.23 865.488 1046.97C867.489 1048.66 870.623 1049.5 874.889 1049.5C877.417 1049.5 879.76 1048.76 881.92 1047.29C882.657 1046.71 883.315 1046.76 883.895 1047.45C884.211 1047.76 884.79 1048.39 885.633 1049.34C885.896 1049.66 886.001 1050.05 885.949 1050.53C885.949 1050.95 885.764 1051.29 885.396 1051.55C882.236 1053.87 878.733 1055.03 874.889 1055.03C869.253 1055.03 864.935 1053.74 861.933 1051.16C858.299 1048.05 856.482 1042.84 856.482 1035.52V1035.44C856.482 1028.27 857.956 1023.17 860.906 1020.11C863.486 1017.37 867.173 1016 871.966 1016C876.811 1016 880.55 1017.37 883.184 1020.11C885.87 1022.9 887.318 1027.43 887.529 1033.7ZM862.012 1033.7H882.078C881.92 1029.01 880.945 1025.75 879.155 1023.9C877.68 1022.27 875.31 1021.45 872.045 1021.45C868.779 1021.45 866.383 1022.27 864.856 1023.9C863.065 1025.75 862.117 1029.01 862.012 1033.7ZM915.566 1016C919.2 1016.11 921.992 1017.79 923.94 1021.06C925.889 1024.32 926.863 1028.83 926.863 1034.57V1052.66C926.863 1053.08 926.705 1053.45 926.389 1053.77C926.126 1054.03 925.784 1054.16 925.362 1054.16H922.834C922.413 1054.16 922.044 1054.03 921.728 1053.77C921.465 1053.45 921.333 1053.08 921.333 1052.66V1034.57C921.333 1033.25 921.333 1032.28 921.333 1031.65C921.333 1030.96 921.281 1030.14 921.175 1029.2C921.07 1028.2 920.912 1027.35 920.701 1026.67C920.491 1025.98 920.201 1025.35 919.832 1024.77C918.516 1022.67 916.725 1021.59 914.46 1021.53C913.249 1021.48 912.038 1021.66 910.826 1022.09C909.615 1022.51 908.562 1023.03 907.666 1023.67C906.771 1024.3 906.034 1025.01 905.454 1025.8C904.506 1027.12 903.743 1028.56 903.163 1030.14V1052.66C903.163 1053.08 903.005 1053.45 902.689 1053.77C902.373 1054.03 902.031 1054.16 901.662 1054.16H899.134C898.713 1054.16 898.344 1054.03 898.028 1053.77C897.765 1053.45 897.633 1053.08 897.633 1052.66V1018.37C897.633 1017.95 897.765 1017.61 898.028 1017.35C898.344 1017.03 898.713 1016.87 899.134 1016.87H901.662C902.084 1016.87 902.426 1017.03 902.689 1017.35C903.005 1017.61 903.163 1017.95 903.163 1018.37V1023.11C903.216 1022.96 903.348 1022.74 903.558 1022.48C906.876 1018.06 910.879 1015.9 915.566 1016ZM959.755 1016.79C960.124 1016.79 960.466 1016.95 960.782 1017.27C961.098 1017.53 961.256 1017.87 961.256 1018.29V1052.58C961.256 1053 961.098 1053.37 960.782 1053.69C960.466 1053.95 960.124 1054.08 959.755 1054.08H957.227C956.806 1054.08 956.437 1053.95 956.121 1053.69C955.858 1053.37 955.726 1053 955.726 1052.58V1018.29C955.726 1017.87 955.858 1017.53 956.121 1017.27C956.437 1016.95 956.806 1016.79 957.227 1016.79H959.755ZM959.755 1002.81C960.124 1002.81 960.466 1002.97 960.782 1003.28C961.098 1003.55 961.256 1003.89 961.256 1004.31V1008.34C961.256 1008.71 961.098 1009.05 960.782 1009.37C960.466 1009.63 960.124 1009.76 959.755 1009.76H957.227C956.806 1009.76 956.437 1009.63 956.121 1009.37C955.858 1009.05 955.726 1008.71 955.726 1008.34V1004.31C955.726 1003.89 955.858 1003.55 956.121 1003.28C956.437 1002.97 956.806 1002.81 957.227 1002.81H959.755ZM990.4 1016C994.034 1016.11 996.826 1017.79 998.774 1021.06C1000.72 1024.32 1001.7 1028.83 1001.7 1034.57V1052.66C1001.7 1053.08 1001.54 1053.45 1001.22 1053.77C1000.96 1054.03 1000.62 1054.16 1000.2 1054.16H997.668C997.247 1054.16 996.878 1054.03 996.562 1053.77C996.299 1053.45 996.167 1053.08 996.167 1052.66V1034.57C996.167 1033.25 996.167 1032.28 996.167 1031.65C996.167 1030.96 996.115 1030.14 996.009 1029.2C995.904 1028.2 995.746 1027.35 995.535 1026.67C995.325 1025.98 995.035 1025.35 994.666 1024.77C993.35 1022.67 991.559 1021.59 989.294 1021.53C988.083 1021.48 986.872 1021.66 985.66 1022.09C984.449 1022.51 983.396 1023.03 982.5 1023.67C981.605 1024.3 980.868 1025.01 980.288 1025.8C979.34 1027.12 978.577 1028.56 977.997 1030.14V1052.66C977.997 1053.08 977.839 1053.45 977.523 1053.77C977.207 1054.03 976.865 1054.16 976.496 1054.16H973.968C973.547 1054.16 973.178 1054.03 972.862 1053.77C972.599 1053.45 972.467 1053.08 972.467 1052.66V1018.37C972.467 1017.95 972.599 1017.61 972.862 1017.35C973.178 1017.03 973.547 1016.87 973.968 1016.87H976.496C976.918 1016.87 977.26 1017.03 977.523 1017.35C977.839 1017.61 977.997 1017.95 977.997 1018.37V1023.11C978.05 1022.96 978.182 1022.74 978.392 1022.48C981.71 1018.06 985.713 1015.9 990.4 1016ZM1061.84 1002.49C1062.27 1002.49 1062.61 1002.65 1062.87 1002.97C1063.19 1003.23 1063.35 1003.57 1063.35 1004V1006.44C1063.35 1006.87 1063.19 1007.23 1062.87 1007.55C1062.61 1007.81 1062.27 1007.95 1061.84 1007.95H1047.55V1052.66C1047.55 1053.08 1047.39 1053.45 1047.07 1053.77C1046.81 1054.03 1046.47 1054.16 1046.04 1054.16H1043.52C1043.09 1054.16 1042.73 1054.03 1042.41 1053.77C1042.15 1053.45 1042.02 1053.08 1042.02 1052.66V1007.95H1027.72C1027.29 1007.95 1026.93 1007.81 1026.61 1007.55C1026.35 1007.23 1026.22 1006.87 1026.22 1006.44V1004C1026.22 1003.57 1026.35 1003.23 1026.61 1002.97C1026.93 1002.65 1027.29 1002.49 1027.72 1002.49H1061.84ZM1092 1017.43C1092.32 1017.95 1092.24 1018.35 1091.77 1018.61L1076.2 1060.32C1075.41 1062.43 1074.02 1064.3 1072.02 1065.93C1070.23 1067.46 1067.99 1068.04 1065.3 1067.67C1064.99 1067.67 1064.54 1067.62 1063.96 1067.51C1063.38 1067.46 1062.93 1067.43 1062.62 1067.43C1062.46 1067.43 1062.17 1067.22 1061.75 1066.8C1061.54 1066.59 1061.43 1066.19 1061.43 1065.62C1061.43 1065.46 1061.48 1065.11 1061.59 1064.59C1061.7 1064.06 1061.75 1063.64 1061.75 1063.32C1061.75 1063.11 1061.96 1062.8 1062.38 1062.38C1062.54 1062.22 1062.91 1062.14 1063.49 1062.14C1063.8 1062.14 1064.25 1062.17 1064.83 1062.22C1065.41 1062.32 1065.86 1062.38 1066.17 1062.38C1067.23 1062.38 1068.2 1062.09 1069.09 1061.51C1070.31 1060.35 1070.99 1059.37 1071.15 1058.58L1073.52 1052.11C1067.04 1035.04 1062.83 1023.98 1060.88 1018.93C1060.88 1018.29 1060.98 1017.79 1061.19 1017.43C1061.56 1017.06 1061.96 1016.87 1062.38 1016.87H1064.99C1065.67 1016.87 1066.17 1017.16 1066.49 1017.74L1076.44 1044.44C1081.92 1029.96 1085.34 1021.06 1086.71 1017.74C1086.71 1017.16 1087.11 1016.87 1087.9 1016.87H1090.9C1091.27 1016.87 1091.64 1017.06 1092 1017.43ZM1118.08 1016C1122.29 1016.11 1125.8 1017.87 1128.59 1021.3C1131.43 1024.67 1132.85 1029.09 1132.85 1034.57C1132.85 1037.15 1132.56 1039.57 1131.99 1041.84C1131.46 1044.05 1130.72 1045.97 1129.77 1047.6C1128.83 1049.18 1127.72 1050.55 1126.46 1051.71C1125.19 1052.82 1123.82 1053.63 1122.35 1054.16C1120.93 1054.74 1119.48 1055.03 1118 1055.03C1113.26 1055.03 1109.18 1053.63 1105.76 1050.84V1065.54C1105.76 1065.9 1105.6 1066.25 1105.28 1066.56C1104.97 1066.88 1104.62 1067.04 1104.26 1067.04H1101.73C1101.31 1067.04 1100.94 1066.88 1100.62 1066.56C1100.36 1066.25 1100.23 1065.9 1100.23 1065.54V1018.37C1100.23 1017.95 1100.36 1017.61 1100.62 1017.35C1100.94 1017.03 1101.31 1016.87 1101.73 1016.87H1104.26C1104.62 1016.87 1104.97 1017.03 1105.28 1017.35C1105.6 1017.61 1105.76 1017.95 1105.76 1018.37V1020.74C1109.18 1017.48 1113.29 1015.9 1118.08 1016ZM1118 1049.58C1120.69 1049.58 1122.9 1048.21 1124.64 1045.47C1126.43 1042.73 1127.32 1039.1 1127.32 1034.57C1127.32 1030.78 1126.46 1027.67 1124.72 1025.25C1122.98 1022.82 1120.71 1021.59 1117.92 1021.53C1116.08 1021.48 1114.37 1021.8 1112.79 1022.48C1111.21 1023.17 1109.94 1024.09 1109 1025.25C1108.05 1026.35 1107.34 1027.27 1106.86 1028.01C1106.39 1028.75 1106.02 1029.49 1105.76 1030.22V1042.39C1106.07 1042.97 1106.47 1043.57 1106.94 1044.21C1107.47 1044.84 1108.21 1045.6 1109.15 1046.5C1110.15 1047.39 1111.42 1048.13 1112.95 1048.71C1114.47 1049.29 1116.16 1049.58 1118 1049.58ZM1172.28 1033.7H1172.36V1036.78C1172.36 1037.2 1172.2 1037.57 1171.89 1037.89C1171.57 1038.15 1171.23 1038.28 1170.86 1038.28H1146.85C1147.11 1042.34 1148.24 1045.23 1150.24 1046.97C1152.24 1048.66 1155.38 1049.5 1159.64 1049.5C1162.17 1049.5 1164.52 1048.76 1166.67 1047.29C1167.41 1046.71 1168.07 1046.76 1168.65 1047.45C1168.97 1047.76 1169.55 1048.39 1170.39 1049.34C1170.65 1049.66 1170.76 1050.05 1170.7 1050.53C1170.7 1050.95 1170.52 1051.29 1170.15 1051.55C1166.99 1053.87 1163.49 1055.03 1159.64 1055.03C1154.01 1055.03 1149.69 1053.74 1146.69 1051.16C1143.05 1048.05 1141.24 1042.84 1141.24 1035.52V1035.44C1141.24 1028.27 1142.71 1023.17 1145.66 1020.11C1148.24 1017.37 1151.93 1016 1156.72 1016C1161.57 1016 1165.31 1017.37 1167.94 1020.11C1170.62 1022.9 1172.07 1027.43 1172.28 1033.7ZM1146.77 1033.7H1166.83C1166.67 1029.01 1165.7 1025.75 1163.91 1023.9C1162.44 1022.27 1160.07 1021.45 1156.8 1021.45C1153.53 1021.45 1151.14 1022.27 1149.61 1023.9C1147.82 1025.75 1146.87 1029.01 1146.77 1033.7ZM1204.03 1037.65C1206.25 1039.33 1207.35 1041.41 1207.35 1043.89C1207.35 1046.89 1206.06 1049.5 1203.48 1051.71C1200.9 1053.92 1197.74 1055.03 1194 1055.03C1192.21 1055.03 1190.16 1054.69 1187.84 1054C1185.57 1053.32 1183.55 1052.32 1181.76 1051C1181.39 1050.74 1181.18 1050.39 1181.12 1049.97C1181.12 1049.55 1181.26 1049.18 1181.52 1048.87C1182.2 1048.08 1182.78 1047.45 1183.26 1046.97C1183.84 1046.29 1184.49 1046.21 1185.23 1046.73C1187.87 1048.58 1190.79 1049.5 1194 1049.5C1195.37 1049.5 1196.66 1049.29 1197.87 1048.87C1199.08 1048.39 1200.03 1047.73 1200.72 1046.89C1201.45 1046 1201.82 1045 1201.82 1043.89C1201.82 1043.05 1201.19 1042.23 1199.93 1041.44C1198.93 1040.86 1196.66 1039.99 1193.13 1038.83C1189.5 1037.62 1186.86 1036.44 1185.23 1035.28C1182.23 1033.17 1180.73 1030.46 1180.73 1027.14C1180.73 1024.14 1182.02 1021.53 1184.6 1019.32C1187.18 1017.11 1190.34 1016 1194.08 1016C1195.87 1016 1197.9 1016.35 1200.16 1017.03C1202.48 1017.71 1204.53 1018.72 1206.33 1020.03C1206.69 1020.3 1206.88 1020.64 1206.88 1021.06C1206.93 1021.48 1206.83 1021.85 1206.56 1022.17C1205.77 1023.01 1205.17 1023.67 1204.75 1024.14C1204.17 1024.77 1203.53 1024.88 1202.85 1024.46C1199.53 1022.45 1196.61 1021.45 1194.08 1021.45C1191.92 1021.45 1190.08 1022.01 1188.55 1023.11C1187.02 1024.17 1186.26 1025.51 1186.26 1027.14C1186.26 1028.83 1187.29 1030.25 1189.34 1031.41C1190.13 1031.83 1190.97 1032.22 1191.87 1032.59C1192.76 1032.91 1193.92 1033.3 1195.34 1033.78C1196.77 1034.25 1197.69 1034.57 1198.11 1034.73C1200.74 1035.67 1202.72 1036.65 1204.03 1037.65ZM1244.6 1049.34C1244.87 1049.71 1244.97 1050.1 1244.92 1050.53C1244.92 1050.95 1244.74 1051.29 1244.37 1051.55C1241.21 1053.87 1237.71 1055.03 1233.86 1055.03C1228.23 1055.03 1223.91 1053.74 1220.9 1051.16C1217.27 1048.05 1215.45 1042.84 1215.45 1035.52V1035.36C1215.45 1028.14 1217.27 1022.98 1220.9 1019.87C1223.91 1017.29 1228.23 1016 1233.86 1016C1237.71 1016 1241.21 1017.16 1244.37 1019.48C1244.68 1019.74 1244.87 1020.08 1244.92 1020.51C1244.97 1020.93 1244.87 1021.3 1244.6 1021.61C1244.29 1021.98 1243.74 1022.64 1242.95 1023.59C1242.31 1024.27 1241.63 1024.32 1240.89 1023.75C1238.78 1022.27 1236.44 1021.53 1233.86 1021.53C1229.59 1021.53 1226.46 1022.38 1224.46 1024.06C1223.09 1025.22 1222.17 1026.75 1221.69 1028.64C1221.22 1030.54 1220.98 1032.83 1220.98 1035.52V1035.75C1220.98 1038.39 1221.22 1040.62 1221.69 1042.47C1222.17 1044.31 1223.09 1045.81 1224.46 1046.97C1226.46 1048.66 1229.59 1049.5 1233.86 1049.5C1236.44 1049.5 1238.78 1048.76 1240.89 1047.29C1241.63 1046.71 1242.29 1046.76 1242.87 1047.45C1243.29 1047.92 1243.87 1048.55 1244.6 1049.34ZM1272.55 1016.08C1272.92 1016.13 1273.24 1016.29 1273.5 1016.56C1273.77 1016.82 1273.9 1017.16 1273.9 1017.58V1020.27C1273.9 1020.8 1273.69 1021.22 1273.27 1021.53C1272.9 1021.8 1272.48 1021.88 1272 1021.77C1271.53 1021.61 1271.03 1021.53 1270.5 1021.53C1268.82 1021.48 1267.16 1022.06 1265.52 1023.27C1263.94 1024.48 1262.6 1025.83 1261.49 1027.3C1260.49 1028.62 1259.73 1030.07 1259.2 1031.65V1052.66C1259.2 1053.08 1259.05 1053.45 1258.73 1053.77C1258.41 1054.03 1258.07 1054.16 1257.7 1054.16H1255.17C1254.75 1054.16 1254.38 1054.03 1254.07 1053.77C1253.81 1053.45 1253.67 1053.08 1253.67 1052.66V1018.37C1253.67 1017.95 1253.81 1017.61 1254.07 1017.35C1254.38 1017.03 1254.75 1016.87 1255.17 1016.87H1257.7C1258.12 1016.87 1258.47 1017.03 1258.73 1017.35C1259.05 1017.61 1259.2 1017.95 1259.2 1018.37V1023.11C1259.36 1022.8 1259.49 1022.59 1259.6 1022.48C1262.92 1018.06 1266.92 1015.9 1271.61 1016C1271.98 1016 1272.29 1016.03 1272.55 1016.08ZM1285.48 1016.79C1285.84 1016.79 1286.19 1016.95 1286.5 1017.27C1286.82 1017.53 1286.98 1017.87 1286.98 1018.29V1052.58C1286.98 1053 1286.82 1053.37 1286.5 1053.69C1286.19 1053.95 1285.84 1054.08 1285.48 1054.08H1282.95C1282.53 1054.08 1282.16 1053.95 1281.84 1053.69C1281.58 1053.37 1281.45 1053 1281.45 1052.58V1018.29C1281.45 1017.87 1281.58 1017.53 1281.84 1017.27C1282.16 1016.95 1282.53 1016.79 1282.95 1016.79H1285.48ZM1285.48 1002.81C1285.84 1002.81 1286.19 1002.97 1286.5 1003.28C1286.82 1003.55 1286.98 1003.89 1286.98 1004.31V1008.34C1286.98 1008.71 1286.82 1009.05 1286.5 1009.37C1286.19 1009.63 1285.84 1009.76 1285.48 1009.76H1282.95C1282.53 1009.76 1282.16 1009.63 1281.84 1009.37C1281.58 1009.05 1281.45 1008.71 1281.45 1008.34V1004.31C1281.45 1003.89 1281.58 1003.55 1281.84 1003.28C1282.16 1002.97 1282.53 1002.81 1282.95 1002.81H1285.48ZM1316.12 1016C1320.33 1016.11 1323.84 1017.87 1326.63 1021.3C1329.47 1024.67 1330.89 1029.09 1330.89 1034.57C1330.89 1037.15 1330.6 1039.57 1330.03 1041.84C1329.5 1044.05 1328.76 1045.97 1327.81 1047.6C1326.87 1049.18 1325.76 1050.55 1324.5 1051.71C1323.23 1052.82 1321.86 1053.63 1320.39 1054.16C1318.97 1054.74 1317.52 1055.03 1316.04 1055.03C1311.3 1055.03 1307.22 1053.63 1303.8 1050.84V1065.54C1303.8 1065.9 1303.64 1066.25 1303.32 1066.56C1303.01 1066.88 1302.66 1067.04 1302.3 1067.04H1299.77C1299.35 1067.04 1298.98 1066.88 1298.66 1066.56C1298.4 1066.25 1298.27 1065.9 1298.27 1065.54V1018.37C1298.27 1017.95 1298.4 1017.61 1298.66 1017.35C1298.98 1017.03 1299.35 1016.87 1299.77 1016.87H1302.3C1302.66 1016.87 1303.01 1017.03 1303.32 1017.35C1303.64 1017.61 1303.8 1017.95 1303.8 1018.37V1020.74C1307.22 1017.48 1311.33 1015.9 1316.12 1016ZM1316.04 1049.58C1318.73 1049.58 1320.94 1048.21 1322.68 1045.47C1324.47 1042.73 1325.36 1039.1 1325.36 1034.57C1325.36 1030.78 1324.5 1027.67 1322.76 1025.25C1321.02 1022.82 1318.75 1021.59 1315.96 1021.53C1314.12 1021.48 1312.41 1021.8 1310.83 1022.48C1309.25 1023.17 1307.98 1024.09 1307.04 1025.25C1306.09 1026.35 1305.38 1027.27 1304.9 1028.01C1304.43 1028.75 1304.06 1029.49 1303.8 1030.22V1042.39C1304.11 1042.97 1304.51 1043.57 1304.98 1044.21C1305.51 1044.84 1306.25 1045.6 1307.19 1046.5C1308.19 1047.39 1309.46 1048.13 1310.99 1048.71C1312.51 1049.29 1314.2 1049.58 1316.04 1049.58ZM1358.33 1051.4C1358.48 1051.82 1358.48 1052.24 1358.33 1052.66C1358.17 1053.03 1357.88 1053.29 1357.46 1053.45C1354.51 1054.66 1352.16 1055.19 1350.43 1055.03C1347.74 1054.77 1345.63 1053.82 1344.11 1052.19C1342.63 1050.55 1341.89 1048.5 1341.89 1046.02V1021.77H1338.97C1338.55 1021.77 1338.18 1021.64 1337.87 1021.38C1337.6 1021.06 1337.47 1020.69 1337.47 1020.27V1017.82C1337.47 1017.4 1337.6 1017.06 1337.87 1016.79C1338.18 1016.48 1338.55 1016.32 1338.97 1016.32H1341.89V1006.6C1341.89 1006.18 1342.03 1005.84 1342.29 1005.58C1342.61 1005.26 1342.97 1005.1 1343.4 1005.1H1345.84C1346.27 1005.1 1346.61 1005.26 1346.87 1005.58C1347.19 1005.84 1347.35 1006.18 1347.35 1006.6V1016.32H1356.27C1356.69 1016.32 1357.04 1016.48 1357.3 1016.79C1357.62 1017.06 1357.77 1017.4 1357.77 1017.82V1020.27C1357.77 1020.69 1357.62 1021.06 1357.3 1021.38C1357.04 1021.64 1356.69 1021.77 1356.27 1021.77H1347.35V1046.02C1347.35 1047.08 1347.61 1047.87 1348.14 1048.39C1348.72 1049.03 1349.64 1049.39 1350.9 1049.5C1351.85 1049.6 1353.32 1049.24 1355.32 1048.39C1355.69 1048.24 1356.06 1048.24 1356.43 1048.39C1356.8 1048.5 1357.06 1048.74 1357.22 1049.1C1357.54 1049.74 1357.91 1050.5 1358.33 1051.4Z"
		fill="white" />
	<path
		d="M606.952 626.959V918.157H606.948L606.95 918.16H565.43L565.428 918.157H565.427V918.154L447.597 709.016V918.157H406.071V626.959L447.597 626.959V627.136L565.427 842.326L565.427 626.959H606.952Z"
		fill="white" />
	<path d="M161.006 627.482L161.006 877.672L284.545 877.672V918.16L120 918.16L120 627.482H161.006Z"
		fill="white" />
	<path d="M366.071 918.16L366.071 627.482L324.546 627.482L324.546 918.16H366.071Z" fill="white" />
	<path
		d="M688.997 918.16V811.78L798.18 917.963H847.062L705.467 772.463L847.062 626.963L797.263 628.315L688.997 733.274V626.962L646.952 626.962V918.16H688.997Z"
		fill="white" />
	<path
		d="M1072.56 660.16C1118.91 660.16 1156.94 695.793 1160.75 741.16H1169.56C1218.44 741.16 1258.06 780.783 1258.06 829.66C1258.06 878.537 1218.44 918.16 1169.56 918.16H975.562C926.684 918.16 887.062 878.537 887.062 829.66C887.062 780.783 926.684 741.16 975.562 741.16H984.375C988.182 695.793 1026.21 660.16 1072.56 660.16Z"
		fill="white" />
	<path
		d="M578.156 486.197L578.156 90L512.394 90L512.394 551.959L512.396 551.959L773.82 551.959V486.197L578.156 486.197Z"
		fill="white" />
	<path
		d="M318.949 551.959C258.228 551.959 199.994 527.837 157.058 484.901C114.121 441.965 90 383.73 90 323.009C90 262.288 114.121 204.054 157.058 161.117C199.994 118.181 258.228 94.0596 318.949 94.0595H472.394V159.01H318.95V159.755C275.652 159.755 234.128 176.955 203.512 207.571C172.896 238.187 155.696 279.712 155.696 323.009C155.696 366.307 172.896 407.831 203.512 438.447C234.128 469.063 275.652 486.263 318.95 486.263V487.009H472.394V551.959H318.949Z"
		fill="white" />
	<path fill-rule="evenodd" clip-rule="evenodd"
		d="M1042.77 551.959C1169.22 551.959 1271.72 449.455 1271.72 323.009C1271.72 196.564 1169.22 94.0596 1042.77 94.0596C916.325 94.0596 813.82 196.564 813.82 323.009C813.82 449.455 916.325 551.959 1042.77 551.959ZM1042.77 486.263C952.607 486.263 879.516 413.172 879.516 323.009C879.516 232.847 952.607 159.755 1042.77 159.755C1132.93 159.755 1206.02 232.847 1206.02 323.009C1206.02 413.172 1132.93 486.263 1042.77 486.263Z"
		fill="white" />
	<path
		d="M1769.62 323.009C1769.62 383.731 1745.5 441.965 1702.56 484.901C1659.62 527.838 1601.39 551.959 1540.67 551.959C1479.95 551.959 1421.71 527.838 1378.78 484.901C1335.84 441.965 1311.72 383.731 1311.72 323.009H1377.42C1377.42 366.307 1394.62 407.831 1425.23 438.447C1455.85 469.063 1497.37 486.263 1540.67 486.263C1583.97 486.263 1625.49 469.063 1656.11 438.447C1686.72 407.831 1703.92 366.307 1703.92 323.009L1769.62 323.009Z"
		fill="white" />
	<path d="M1769.62 323.009L1704.67 323.009V94.0594L1769.62 94.0594V323.009Z" fill="white" />
	<path d="M1311.72 323.009L1311.72 94.0594L1376.67 94.0594V323.009L1311.72 323.009Z" fill="white" />
	<path
		d="M2124.96 484.562C2082.06 527.452 2023.91 551.568 1963.26 551.619V551.959H1809.81V487.009H1963.06V485.924C2006.36 485.924 2047.89 468.724 2078.5 438.108C2109.12 407.492 2126.32 365.967 2126.32 322.67C2126.32 279.372 2109.12 237.848 2078.5 207.232C2047.89 176.616 2006.36 159.416 1963.06 159.416V158.67H1809.62V93.7202H1963.06C2023.79 93.7203 2082.02 117.842 2124.96 160.778C2167.89 203.714 2192.01 261.949 2192.01 322.67C2192.01 383.391 2167.89 441.625 2124.96 484.562Z"
		fill="white" />
	<defs>
		<linearGradient id="paint0_linear_1_137" x1="3155.72" y1="-205.507" x2="2426.09" y2="944.476"
			gradientUnits="userSpaceOnUse">
			<stop stop-color="#59FDCF" />
			<stop offset="0.364383" stop-color="#59FDCF" />
			<stop offset="0.364483" stop-color="white" />
			<stop offset="0.552083" stop-color="white" />
			<stop offset="0.744692" stop-color="#CDFFF1" />
			<stop offset="0.744792" stop-color="white" />
			<stop offset="0.744892" stop-color="#59FDCF" />
			<stop offset="1" stop-color="#59FDCF" />
		</linearGradient>
		<linearGradient id="paint1_linear_1_137" x1="3155.72" y1="-205.507" x2="2426.09" y2="944.476"
			gradientUnits="userSpaceOnUse">
			<stop stop-color="#59FDCF" />
			<stop offset="0.364383" stop-color="#59FDCF" />
			<stop offset="0.364483" stop-color="white" />
			<stop offset="0.552083" stop-color="white" />
			<stop offset="0.744692" stop-color="#CDFFF1" />
			<stop offset="0.744792" stop-color="white" />
			<stop offset="0.744892" stop-color="#59FDCF" />
			<stop offset="1" stop-color="#59FDCF" />
		</linearGradient>
		<linearGradient id="paint2_linear_1_137" x1="3155.72" y1="-205.507" x2="2426.09" y2="944.476"
			gradientUnits="userSpaceOnUse">
			<stop stop-color="#59FDCF" />
			<stop offset="0.364383" stop-color="#59FDCF" />
			<stop offset="0.364483" stop-color="white" />
			<stop offset="0.552083" stop-color="white" />
			<stop offset="0.744692" stop-color="#CDFFF1" />
			<stop offset="0.744792" stop-color="white" />
			<stop offset="0.744892" stop-color="#59FDCF" />
			<stop offset="1" stop-color="#59FDCF" />
		</linearGradient>
	</defs>
</svg>
	